<?xml version="1.0" encoding="UTF-8"?>
<svg version="1.1" xmlns="http://www.w3.org/2000/svg" width="240" height="40">
<path d="M0 0 C79.2 0 158.4 0 240 0 C240 13.2 240 26.4 240 40 C160.8 40 81.6 40 0 40 C0 26.8 0 13.6 0 0 Z " fill="#141415" transform="translate(0,0)"/>
<path d="M0 0 C2.31 0 4.62 0 7 0 C8.71128044 3.96833494 10.42021673 7.93766829 12.12695312 11.90795898 C12.70833454 13.25947569 13.29036447 14.61071361 13.87304688 15.96166992 C14.70872461 17.89950427 15.54209244 19.83831743 16.375 21.77734375 C16.87773438 22.94515381 17.38046875 24.11296387 17.8984375 25.31616211 C19 28 19 28 19 29 C16.69 29 14.38 29 12 29 C11.7525 28.030625 11.505 27.06125 11.25 26.0625 C9.32917374 22.73936886 9.32917374 22.73936886 6.12890625 22.37890625 C3.0778553 22.14531578 0.05957276 22.00948705 -3 22 C-3.309375 22.969375 -3.61875 23.93875 -3.9375 24.9375 C-5 28 -5 28 -6 29 C-7.99958364 29.04080783 -10.00045254 29.04254356 -12 29 C-11.01 26.03 -10.02 23.06 -9 20 C-12.13170151 20.34796683 -13.76754038 20.81274086 -16.25 22.8125 C-17.98120654 24.97650817 -18.61317453 26.29222168 -19 29 C-20.32 28.67 -21.64 28.34 -23 28 C-23 27.01 -23 26.02 -23 25 C-21.35443434 23.96564444 -19.6829392 22.97236487 -18 22 C-17.195625 21.13375 -16.39125 20.2675 -15.5625 19.375 C-12.63218899 16.65910199 -10.92015317 16.27349906 -7 16 C-10.96 15.67 -14.92 15.34 -19 15 C-19 15.66 -19 16.32 -19 17 C-20.32 16.67 -21.64 16.34 -23 16 C-22.67 14.68 -22.34 13.36 -22 12 C-21.01 12 -20.02 12 -19 12 C-19 12.66 -19 13.32 -19 14 C-12.565 13.505 -12.565 13.505 -6 13 C-8.31 12.67 -10.62 12.34 -13 12 C-13.33 11.01 -13.66 10.02 -14 9 C-10.7 9 -7.4 9 -4 9 C-2.68 6.03 -1.36 3.06 0 0 Z " fill="#C4A032" transform="translate(40,4)"/>
<path d="M0 0 C2.84625 -0.103125 5.6925 -0.20625 8.625 -0.3125 C9.95265381 -0.38078003 9.95265381 -0.38078003 11.30712891 -0.45043945 C15.40991126 -0.52200498 18.24357251 -0.29966592 21.578125 2.23046875 C24 5 24 5 24.5078125 7.3515625 C23.47312264 13.49635332 23.47312264 13.49635332 21.0625 16.0625 C19 17 19 17 17 17 C17.5053125 17.71027344 18.010625 18.42054687 18.53125 19.15234375 C19.1809375 20.07144531 19.830625 20.99054687 20.5 21.9375 C21.1496875 22.85402344 21.799375 23.77054688 22.46875 24.71484375 C24 27 24 27 24 28 C21.375 28.5 21.375 28.5 18 28 C15.5736254 25.60641425 13.67802863 22.96332716 12 20 C12 19.34 12 18.68 12 18 C9.69 18 7.38 18 5 18 C5 21.3 5 24.6 5 28 C3.35 28 1.7 28 0 28 C0 18.76 0 9.52 0 0 Z " fill="#F9F9F9" transform="translate(145,4)"/>
<path d="M0 0 C6.93 0 13.86 0 21 0 C21 1.32 21 2.64 21 4 C15.72 4 10.44 4 5 4 C5 6.64 5 9.28 5 12 C9.62 12 14.24 12 19 12 C19 13.32 19 14.64 19 16 C14.38 16 9.76 16 5 16 C5 18.64 5 21.28 5 24 C10.61 24 16.22 24 22 24 C22 25.32 22 26.64 22 28 C14.74 28 7.48 28 0 28 C0 18.76 0 9.52 0 0 Z " fill="#FBFBFB" transform="translate(116,4)"/>
<path d="M0 0 C0.804375 0.495 1.60875 0.99 2.4375 1.5 C2.4375 2.49 2.4375 3.48 2.4375 4.5 C1.4475 5.16 0.4575 5.82 -0.5625 6.5 C-1.5525 5.84 -2.5425 5.18 -3.5625 4.5 C-8.46737343 3.94622397 -10.46229388 3.74360829 -14.5625 6.5625 C-17.07228123 10.24874118 -17.18858836 12.11738151 -16.5625 16.5 C-14.81521222 20.22803465 -14.81521222 20.22803465 -11.5625 22.5 C-6.61980019 22.7430836 -3.07240242 22.75495121 1.4375 20.5 C2.0975 21.82 2.7575 23.14 3.4375 24.5 C-1.90504913 28.13748026 -6.0751591 29.66014491 -12.5625 28.5 C-17.38409389 26.13468979 -20.26571747 23.35857844 -22.5625 18.5 C-23.37638423 13.85524688 -23.68146824 9.52858113 -21.3515625 5.3046875 C-15.53769261 -1.74868764 -8.51460392 -3.58509639 0 0 Z " fill="#F4F4F4" transform="translate(105.5625,4.5)"/>
<path d="M0 0 C7.92 0 15.84 0 24 0 C24 1.65 24 3.3 24 5 C20.7 5 17.4 5 14 5 C14 12.92 14 20.84 14 29 C12.35 29 10.7 29 9 29 C9 21.08 9 13.16 9 5 C6.03 5 3.06 5 0 5 C0 3.35 0 1.7 0 0 Z " fill="#EDEDED" transform="translate(174,3)"/>
<path d="M0 0 C0.99 0.66 1.98 1.32 3 2 C2.67 3.32 2.34 4.64 2 6 C-0.64 5.67 -3.28 5.34 -6 5 C-6 5.99 -6 6.98 -6 8 C-5.36191406 8.27714844 -4.72382813 8.55429687 -4.06640625 8.83984375 C-3.24011719 9.20207031 -2.41382813 9.56429688 -1.5625 9.9375 C-0.73878906 10.29714844 0.08492187 10.65679687 0.93359375 11.02734375 C3 12 3 12 4 13 C4.38721999 16.48497993 4.39387281 18.37636806 2.5 21.375 C-0.94386196 23.61351028 -4.05779703 23.6791518 -8 23 C-11 21.5 -11 21.5 -13 20 C-12.505 18.515 -12.505 18.515 -12 17 C-8.7 17.33 -5.4 17.66 -2 18 C-2 17.01 -2 16.02 -2 15 C-2.55429688 14.80664062 -3.10859375 14.61328125 -3.6796875 14.4140625 C-4.40414062 14.15367188 -5.12859375 13.89328125 -5.875 13.625 C-6.95394531 13.24214844 -6.95394531 13.24214844 -8.0546875 12.8515625 C-10 12 -10 12 -12 10 C-12.45892595 6.48156769 -12.41140736 4.65139498 -10.5 1.625 C-6.78629977 -0.78890515 -4.39541369 -0.41861083 0 0 Z " fill="#EDEDED" transform="translate(211,10)"/>
<path d="M0 0 C1.98 0 3.96 0 6 0 C6 9.57 6 19.14 6 29 C4.02 29 2.04 29 0 29 C0 19.43 0 9.86 0 0 Z " fill="#CDA734" transform="translate(65,4)"/>
<path d="M0 0 C1.79133978 -0.05391993 3.58313899 -0.09275571 5.375 -0.125 C6.37273437 -0.14820313 7.37046875 -0.17140625 8.3984375 -0.1953125 C11 0 11 0 13 2 C13.25 5 13.25 5 13 8 C11 10 11 10 8.3984375 10.1953125 C7.40070313 10.17210937 6.40296875 10.14890625 5.375 10.125 C3.87066406 10.09792969 3.87066406 10.09792969 2.3359375 10.0703125 C1.56507813 10.04710937 0.79421875 10.02390625 0 10 C0 6.7 0 3.4 0 0 Z " fill="#141417" transform="translate(150,8)"/>
<path d="M0 0 C0.99 0.33 1.98 0.66 3 1 C3 1.66 3 2.32 3 3 C3.66 3 4.32 3 5 3 C5.33 2.01 5.66 1.02 6 0 C6.66 0 7.32 0 8 0 C8 2.64 8 5.28 8 8 C7.34 8 6.68 8 6 8 C5.67 7.34 5.34 6.68 5 6 C4.34 6 3.68 6 3 6 C2.67 6.66 2.34 7.32 2 8 C1.34 8 0.68 8 0 8 C0 5.36 0 2.72 0 0 Z " fill="#DBDBDC" transform="translate(223,3)"/>
<path d="M0 0 C2.6855594 2.6855594 3.06049974 5.37621328 4 9 C1.69 9 -0.62 9 -3 9 C-2.44271087 5.65626525 -1.64826111 2.96687001 0 0 Z " fill="#191509" transform="translate(43,12)"/>
<path d="M0 0 C2.31 0 4.62 0 7 0 C7 0.66 7 1.32 7 2 C6.34 2 5.68 2 5 2 C5 4.31 5 6.62 5 9 C4.01 9 3.02 9 2 9 C2 6.69 2 4.38 2 2 C1.34 2 0.68 2 0 2 C0 1.34 0 0.68 0 0 Z " fill="#AAAAAC" transform="translate(215,3)"/>
<path d="M0 0 C0.99 0 1.98 0 3 0 C3 0.66 3 1.32 3 2 C7.29 2 11.58 2 16 2 C16 2.33 16 2.66 16 3 C11.71 3 7.42 3 3 3 C3 3.66 3 4.32 3 5 C1.68 4.67 0.36 4.34 -1 4 C-0.67 2.68 -0.34 1.36 0 0 Z " fill="#B9972F" transform="translate(18,16)"/>
<path d="M0 0 C1.98 0.495 1.98 0.495 4 1 C4 2.32 4 3.64 4 5 C2.68 4.67 1.36 4.34 0 4 C0 2.68 0 1.36 0 0 Z " fill="#B2922D" transform="translate(18,4)"/>
</svg>
